<svg width="28" height="28" viewBox="0 0 28 28" fill="none" xmlns="http://www.w3.org/2000/svg">
<path d="M10.3316 25.048C11.3056 25.048 12.0952 24.259 12.0952 23.2856C12.0952 22.3123 11.3056 21.5232 10.3316 21.5232C9.35758 21.5232 8.56799 22.3123 8.56799 23.2856C8.56799 24.259 9.35758 25.048 10.3316 25.048Z" fill="black"/>
<path d="M21.0462 25.048C22.0202 25.048 22.8098 24.259 22.8098 23.2856C22.8098 22.3123 22.0202 21.5232 21.0462 21.5232C20.0722 21.5232 19.2826 22.3123 19.2826 23.2856C19.2826 24.259 20.0722 25.048 21.0462 25.048Z" fill="black"/>
<path d="M25.8117 4.18876C25.7388 4.0989 25.6469 4.02631 25.5425 3.9762C25.4382 3.92609 25.324 3.89971 25.2082 3.89894H8.88919L9.39867 5.46553H24.1814L22.0886 14.865H10.3314L6.74937 3.53079C6.71063 3.41052 6.64334 3.30141 6.55326 3.21275C6.46318 3.1241 6.35298 3.05853 6.23205 3.02165L3.01841 2.0347C2.9196 2.00436 2.81577 1.99376 2.71286 2.00351C2.60995 2.01327 2.50996 2.04319 2.41862 2.09155C2.23414 2.18924 2.09605 2.35616 2.03473 2.55559C1.9734 2.75503 1.99387 2.97063 2.09162 3.15499C2.18937 3.33934 2.3564 3.47734 2.55596 3.53863L5.36986 4.40025L8.96757 15.758L7.68211 16.8076L7.58022 16.9094C7.26225 17.2756 7.08202 17.7412 7.07058 18.2258C7.05913 18.7105 7.21718 19.184 7.51751 19.5648C7.73115 19.8244 8.00262 20.0305 8.31021 20.1665C8.61781 20.3025 8.95298 20.3647 9.28893 20.3481H22.3708C22.5787 20.3481 22.778 20.2656 22.925 20.1187C23.072 19.9718 23.1546 19.7725 23.1546 19.5648C23.1546 19.3571 23.072 19.1578 22.925 19.0109C22.778 18.864 22.5787 18.7815 22.3708 18.7815H9.16352C9.07326 18.7784 8.98532 18.7521 8.9082 18.7052C8.83108 18.6582 8.76738 18.5922 8.72325 18.5134C8.67912 18.4347 8.65606 18.3459 8.6563 18.2557C8.65653 18.1654 8.68005 18.0767 8.72458 17.9982L10.6136 16.4316H22.7157C22.8969 16.4361 23.074 16.3776 23.2169 16.2662C23.3598 16.1548 23.4597 15.9974 23.4995 15.8207L25.9842 4.85456C26.008 4.73778 26.0049 4.61711 25.975 4.50173C25.9451 4.38636 25.8893 4.27931 25.8117 4.18876V4.18876Z" fill="black"/>
</svg>
