<svg width="18" height="15" viewBox="0 0 18 15" fill="none" xmlns="http://www.w3.org/2000/svg">
<path d="M9.89011 0C5.79396 0 2.47253 3.35833 2.47253 7.5H0L3.20604 10.7417L3.26374 10.8583L6.59341 7.5H4.12088C4.12088 4.275 6.70055 1.66667 9.89011 1.66667C13.0797 1.66667 15.6593 4.275 15.6593 7.5C15.6593 10.725 13.0797 13.3333 9.89011 13.3333C8.29945 13.3333 6.85714 12.675 5.81868 11.6167L4.64835 12.8C5.99176 14.1583 7.83791 15 9.89011 15C13.9863 15 17.3077 11.6417 17.3077 7.5C17.3077 3.35833 13.9863 0 9.89011 0ZM9.06594 4.16667V8.33333L12.5934 10.45L13.1868 9.44167L10.3022 7.70833V4.16667H9.06594Z" fill="black"/>
</svg>
