<svg width="16" height="16" viewBox="0 0 16 16" fill="none" xmlns="http://www.w3.org/2000/svg">
<path d="M8 0C6.41775 0 4.87103 0.469192 3.55544 1.34824C2.23985 2.22729 1.21447 3.47672 0.608967 4.93853C0.00346626 6.40034 -0.15496 8.00887 0.153721 9.56072C0.462403 11.1126 1.22433 12.538 2.34315 13.6569C3.46197 14.7757 4.88743 15.5376 6.43928 15.8463C7.99113 16.155 9.59966 15.9965 11.0615 15.391C12.5233 14.7855 13.7727 13.7602 14.6518 12.4446C15.5308 11.129 16 9.58225 16 8C16 5.87827 15.1571 3.84344 13.6569 2.34315C12.1566 0.842854 10.1217 0 8 0V0ZM3.42857 9.14286C3.20254 9.14286 2.98158 9.07583 2.79364 8.95025C2.6057 8.82467 2.45921 8.64618 2.37271 8.43735C2.28621 8.22852 2.26358 7.99873 2.30768 7.77704C2.35177 7.55535 2.46062 7.35171 2.62045 7.19188C2.78028 7.03205 2.98392 6.9232 3.20561 6.8791C3.42731 6.835 3.6571 6.85764 3.86593 6.94414C4.07476 7.03064 4.25325 7.17712 4.37883 7.36506C4.5044 7.553 4.57143 7.77396 4.57143 8C4.57143 8.3031 4.45102 8.59379 4.2367 8.80812C4.02237 9.02245 3.73168 9.14286 3.42857 9.14286ZM8 9.14286C7.77397 9.14286 7.55301 9.07583 7.36507 8.95025C7.17712 8.82467 7.03064 8.64618 6.94414 8.43735C6.85764 8.22852 6.83501 7.99873 6.87911 7.77704C6.9232 7.55535 7.03205 7.35171 7.19188 7.19188C7.35171 7.03205 7.55535 6.9232 7.77704 6.8791C7.99873 6.835 8.22853 6.85764 8.43736 6.94414C8.64619 7.03064 8.82467 7.17712 8.95025 7.36506C9.07583 7.553 9.14286 7.77396 9.14286 8C9.14286 8.3031 9.02245 8.59379 8.80812 8.80812C8.5938 9.02245 8.30311 9.14286 8 9.14286V9.14286ZM12.5714 9.14286C12.3454 9.14286 12.1244 9.07583 11.9365 8.95025C11.7486 8.82467 11.6021 8.64618 11.5156 8.43735C11.4291 8.22852 11.4064 7.99873 11.4505 7.77704C11.4946 7.55535 11.6035 7.35171 11.7633 7.19188C11.9231 7.03205 12.1268 6.9232 12.3485 6.8791C12.5702 6.835 12.8 6.85764 13.0088 6.94414C13.2176 7.03064 13.3961 7.17712 13.5217 7.36506C13.6473 7.553 13.7143 7.77396 13.7143 8C13.7143 8.3031 13.5939 8.59379 13.3796 8.80812C13.1652 9.02245 12.8745 9.14286 12.5714 9.14286Z" fill="#E0E40D"/>
</svg>
