<svg width="16" height="16" viewBox="0 0 16 16" fill="none" xmlns="http://www.w3.org/2000/svg">
<path d="M3.64621 14H2.57143V12.7143H1.28571V11.6395L2.19978 10.7254L4.56027 13.0859L3.64621 14ZM8.89955 4.67857C8.89955 4.73884 8.87946 4.79911 8.82924 4.84933L3.38504 10.2935C3.33482 10.3437 3.27455 10.3638 3.21429 10.3638C3.08371 10.3638 2.9933 10.2734 2.9933 10.1429C2.9933 10.0826 3.01339 10.0223 3.06362 9.9721L8.50781 4.5279C8.55804 4.47768 8.6183 4.45759 8.67857 4.45759C8.80915 4.45759 8.89955 4.54799 8.89955 4.67857ZM8.35714 2.75L0 11.1071V15.2857H4.17857L12.5357 6.92857L8.35714 2.75ZM15.2176 3.71429C15.2176 3.37277 15.077 3.04129 14.846 2.80022L12.4855 0.449776C12.2444 0.208705 11.9129 0.0680796 11.5714 0.0680796C11.2299 0.0680796 10.8984 0.208705 10.6674 0.449776L9 2.10714L13.1786 6.28571L14.846 4.6183C15.077 4.38728 15.2176 4.0558 15.2176 3.71429Z" fill="#B3D6FE"/>
</svg>
