<svg width="28" height="28" viewBox="0 0 28 28" fill="none" xmlns="http://www.w3.org/2000/svg">
<g clip-path="url(#clip0_485_3)">
<g clip-path="url(#clip1_485_3)">
<path d="M13.958 5.65599C14.119 5.46699 14.28 5.26399 14.448 5.07499C15.393 4.00399 16.527 3.19899 17.892 2.73699C18.746 2.44999 19.628 2.38699 20.531 2.42899C22.575 2.51299 24.29 3.35299 25.683 4.80899C26.761 5.93599 27.447 7.29399 27.783 8.83399C28.028 9.93999 28.049 11.053 27.923 12.159C27.783 13.426 27.314 14.595 26.67 15.694C26.068 16.716 25.375 17.675 24.556 18.522C23.702 19.404 22.848 20.293 21.938 21.119C20.664 22.274 19.341 23.38 18.039 24.507C17.101 25.319 16.163 26.124 15.239 26.95C14.441 27.664 13.419 27.636 12.607 26.915C11.214 25.683 9.779 24.493 8.372 23.275C7.665 22.666 6.965 22.05 6.286 21.42C5.418 20.608 4.564 19.81 3.738 18.97C2.457 17.668 1.372 16.219 0.623003 14.546C0.0350029 13.237 -0.153997 11.851 -0.104997 10.423C-0.0209971 8.32999 0.693003 6.48199 2.079 4.92799C3.073 3.80799 4.326 3.03799 5.789 2.66699C7.287 2.28899 8.792 2.28899 10.248 2.83499C11.697 3.38099 12.887 4.31899 13.825 5.55799C13.853 5.59299 13.881 5.62799 13.916 5.66299C13.916 5.65599 13.93 5.65599 13.958 5.65599ZM13.93 25.564C14.105 25.424 14.245 25.312 14.385 25.186C15.869 23.912 17.353 22.645 18.83 21.357C19.698 20.601 20.587 19.852 21.406 19.047C22.316 18.151 23.205 17.234 24.017 16.254C24.843 15.26 25.55 14.161 25.844 12.873C25.991 12.229 26.11 11.564 26.124 10.906C26.138 10.325 26.033 9.72999 25.914 9.14899C25.578 7.51099 24.717 6.19499 23.331 5.24999C22.26 4.51499 21.049 4.23499 19.747 4.31199C18.543 4.38199 17.5 4.80199 16.583 5.58599C15.946 6.13199 15.435 6.76899 14.98 7.46899C14.721 7.87499 14.385 8.15499 13.86 8.11999C13.391 8.09199 13.104 7.81199 12.866 7.44099C12.369 6.65699 11.788 5.94999 11.046 5.38299C9.989 4.57799 8.792 4.22799 7.455 4.29799C6.727 4.33299 6.034 4.48699 5.39 4.77399C3.969 5.40399 2.982 6.48899 2.359 7.90999C1.897 8.96699 1.736 10.08 1.778 11.242C1.806 11.949 1.925 12.642 2.156 13.307C2.716 14.931 3.745 16.268 4.907 17.493C5.642 18.27 6.426 19.005 7.203 19.74C7.812 20.314 8.449 20.86 9.086 21.406C9.954 22.155 10.829 22.89 11.697 23.632C12.446 24.262 13.174 24.913 13.93 25.564Z" fill="black"/>
</g>
</g>
<defs>
<clipPath id="clip0_485_3">
<rect width="28" height="28" fill="white"/>
</clipPath>
<clipPath id="clip1_485_3">
<rect width="28" height="28" fill="white"/>
</clipPath>
</defs>
</svg>
