<svg width="28" height="28" viewBox="0 0 28 28" fill="none" xmlns="http://www.w3.org/2000/svg">
<path d="M14.0001 14C15.6503 14 17.233 13.3444 18.3999 12.1775C19.5668 11.0106 20.2223 9.428 20.2223 7.77776C20.2223 6.12753 19.5668 4.54488 18.3999 3.37799C17.233 2.2111 15.6503 1.55554 14.0001 1.55554C12.3499 1.55554 10.7672 2.2111 9.60033 3.37799C8.43344 4.54488 7.77789 6.12753 7.77789 7.77776C7.77789 9.428 8.43344 11.0106 9.60033 12.1775C10.7672 13.3444 12.3499 14 14.0001 14ZM18.1483 7.77776C18.1483 8.87792 17.7112 9.93302 16.9333 10.7109C16.1554 11.4889 15.1003 11.9259 14.0001 11.9259C12.9 11.9259 11.8449 11.4889 11.0669 10.7109C10.289 9.93302 9.85196 8.87792 9.85196 7.77776C9.85196 6.67761 10.289 5.62251 11.0669 4.84458C11.8449 4.06665 12.9 3.62962 14.0001 3.62962C15.1003 3.62962 16.1554 4.06665 16.9333 4.84458C17.7112 5.62251 18.1483 6.67761 18.1483 7.77776ZM26.4446 24.3704C26.4446 26.4444 24.3705 26.4444 24.3705 26.4444H3.62974C3.62974 26.4444 1.55566 26.4444 1.55566 24.3704C1.55566 22.2963 3.62974 16.0741 14.0001 16.0741C24.3705 16.0741 26.4446 22.2963 26.4446 24.3704ZM24.3705 24.3621C24.3684 23.8518 24.0511 22.317 22.6448 20.9108C21.2926 19.5585 18.7477 18.1481 14.0001 18.1481C9.25048 18.1481 6.70766 19.5585 5.35537 20.9108C3.94915 22.317 3.63389 23.8518 3.62974 24.3621H24.3705Z" fill="#3C3CFF"/>
</svg>
