<svg width="15" height="17" viewBox="0 0 15 17" fill="none" xmlns="http://www.w3.org/2000/svg">
<path d="M5.14286 6.96429C5.14286 6.78348 5.00223 6.64286 4.82143 6.64286H4.17857C3.99777 6.64286 3.85714 6.78348 3.85714 6.96429V12.75C3.85714 12.9308 3.99777 13.0714 4.17857 13.0714H4.82143C5.00223 13.0714 5.14286 12.9308 5.14286 12.75V6.96429ZM7.71429 6.96429C7.71429 6.78348 7.57366 6.64286 7.39286 6.64286H6.75C6.5692 6.64286 6.42857 6.78348 6.42857 6.96429V12.75C6.42857 12.9308 6.5692 13.0714 6.75 13.0714H7.39286C7.57366 13.0714 7.71429 12.9308 7.71429 12.75V6.96429ZM10.2857 6.96429C10.2857 6.78348 10.1451 6.64286 9.96429 6.64286H9.32143C9.14062 6.64286 9 6.78348 9 6.96429V12.75C9 12.9308 9.14062 13.0714 9.32143 13.0714H9.96429C10.1451 13.0714 10.2857 12.9308 10.2857 12.75V6.96429ZM11.5714 14.2366C11.5714 14.7188 11.3002 15 11.25 15H2.89286C2.84263 15 2.57143 14.7188 2.57143 14.2366V4.71429H11.5714V14.2366ZM4.82143 3.42857L5.31362 2.25335C5.34375 2.21317 5.42411 2.1529 5.48438 2.14286H8.66853C8.71875 2.1529 8.80915 2.21317 8.83929 2.25335L9.32143 3.42857H4.82143ZM14.1429 3.75C14.1429 3.5692 14.0022 3.42857 13.8214 3.42857H10.7176L10.0145 1.75112C9.81362 1.25893 9.21094 0.857142 8.67857 0.857142H5.46429C4.93192 0.857142 4.32924 1.25893 4.12835 1.75112L3.42522 3.42857H0.321429C0.140625 3.42857 0 3.5692 0 3.75V4.39286C0 4.57366 0.140625 4.71429 0.321429 4.71429H1.28571V14.2768C1.28571 15.3817 2.00893 16.2857 2.89286 16.2857H11.25C12.1339 16.2857 12.8571 15.3415 12.8571 14.2366V4.71429H13.8214C14.0022 4.71429 14.1429 4.57366 14.1429 4.39286V3.75Z" fill="#B3D6FE"/>
</svg>
